# File produced by Open Asset Import Library (http://www.assimp.sf.net)
# (assimp v3.1.187496374)

mtllib 11-wedge.obj.mtl

# 8 vertex positions
v  -0.0113086 0 0
v  -0.0113086 -0.0127 0
v  -0.0113086 -0.0127 0.00127
v  -0.0113086 0 0.00127
v  0.0115514 0 0
v  0.0115514 -0.0127 0
v  0.0115514 0 0.0127
v  0.0115514 -0.0127 0.0127

# 0 UV coordinates

# 6 vertex normals
vn -1 0 0
vn -0 -0 -1
vn 1 0 0
vn -0.447214 0 0.894427
vn 0 -1 0
vn 0 1 0

# Mesh '$ColladaAutoName$_0_ID2' with 12 faces
g $ColladaAutoName$_0_ID2
usemtl ID9
f  1//1 2//1 3//1
f  1//1 3//1 4//1
f  1//2 5//2 6//2
f  6//2 2//2 1//2
f  5//3 7//3 8//3
f  8//3 6//3 5//3
f  4//4 3//4 8//4
f  4//4 8//4 7//4
f  8//5 3//5 6//5
f  2//5 6//5 3//5
f  4//6 7//6 5//6
f  5//6 1//6 4//6

