# File produced by Open Asset Import Library (http://www.assimp.sf.net)
# (assimp v3.1.187496374)

mtllib 13 - frustum.obj.mtl

# 182 vertex positions
v  0.000535865 0.0050515 0.020287
v  0.000699857 0.0101359 -0.0185057
v  0.000180668 0.0050766 0.020287
v  0.00139144 0.0100644 -0.0185057
v  0.00088784 0.00500161 0.020287
v  -2.46009e-06 0.0101597 -0.0185057
v  -0.000176776 0.0050766 0.020287
v  -0.000700236 0.0101358 -0.0185057
v  -0.000534734 0.00505186 0.020287
v  -0.00139365 0.0100638 -0.0185057
v  -0.000885422 0.00500239 0.020287
v  -0.00207666 0.00994543 -0.0185057
v  -0.00123273 0.00492817 0.020287
v  -0.00274843 0.00978111 -0.0185057
v  -0.00157118 0.004831 0.020287
v  -0.00340607 0.009572 -0.0185057
v  -0.00190255 0.00471027 0.020287
v  -0.00404729 0.00931906 -0.0185057
v  -0.00222462 0.00456695 0.020287
v  -0.00467053 0.00902293 -0.0185057
v  -0.00253582 0.00440166 0.020287
v  -0.00527226 0.00868507 -0.0185057
v  -0.00283654 0.00421427 0.020287
v  -0.00585216 0.00830556 -0.0185057
v  -0.00312295 0.00400635 0.020287
v  -0.00640542 0.00788654 -0.0185057
v  -0.00339681 0.00377717 0.020287
v  -0.00693424 0.0074255 -0.0185057
v  -0.00365304 0.00352988 0.020287
v  -0.00742801 0.00693178 -0.0185057
v  -0.0038923 0.00326407 0.020287
v  -0.00788697 0.00640443 -0.0185057
v  -0.0041124 0.0029826 0.020287
v  -0.0083062 0.00585075 -0.0185057
v  -0.00430989 0.0026894 0.020287
v  -0.00868551 0.0052712 -0.0185057
v  -0.00448666 0.00238251 0.020287
v  -0.00902355 0.00466903 -0.0185057
v  -0.00464073 0.00206644 0.020287
v  -0.00931951 0.00404619 -0.0185057
v  -0.00477296 0.00173923 0.020287
v  -0.00957263 0.00340456 -0.0185057
v  -0.00488199 0.00140415 0.020287
v  -0.00978155 0.00274736 -0.0185057
v  -0.00496768 0.00106156 0.020287
v  -0.009946 0.00207528 -0.0185057
v  -0.00502975 0.000712122 0.020287
v  -0.0100642 0.00139265 -0.0185057
v  -0.00506697 0.000358786 0.020287
v  -0.0101355 0.000700888 -0.0185057
v  -0.00508 0 0.020287
v  -0.01016 0 -0.0185057
v  -0.0101355 -0.000700888 -0.0185057
v  -0.00506812 -0.000355087 0.020287
v  -0.010064 -0.0013932 -0.0185057
v  -0.00503142 -0.00070694 0.020287
v  -0.00994533 -0.00207691 -0.0185057
v  -0.00496956 -0.00105674 0.020287
v  -0.00978113 -0.00274837 -0.0185057
v  -0.00488379 -0.00140006 0.020287
v  -0.00957204 -0.00340597 -0.0185057
v  -0.00477383 -0.00173761 0.020287
v  -0.00931895 -0.00404754 -0.0185057
v  -0.00464115 -0.00206575 0.020287
v  -0.00902309 -0.00467013 -0.0185057
v  -0.00448558 -0.00238483 0.020287
v  -0.00868485 -0.00527278 -0.0185057
v  -0.00430856 -0.00269152 0.020287
v  -0.00830592 -0.00585143 -0.0185057
v  -0.0041101 -0.0029858 0.020287
v  -0.00788536 -0.0064069 -0.0185057
v  -0.003892 -0.00326494 0.020287
v  -0.00742787 -0.006932 -0.0185057
v  -0.00365454 -0.00352867 0.020287
v  -0.00693077 -0.0074286 -0.0185057
v  -0.00339966 -0.00377493 0.020287
v  -0.00640498 -0.00788674 -0.0185057
v  -0.00312793 -0.00400322 0.020287
v  -0.00585041 -0.00830634 -0.0185057
v  -0.00284116 -0.00421175 0.020287
v  -0.00527135 -0.00868544 -0.0185057
v  -0.00254029 -0.00439993 0.020287
v  -0.00466905 -0.00902354 -0.0185057
v  -0.00222709 -0.00456645 0.020287
v  -0.00404601 -0.00931958 -0.0185057
v  -0.00190294 -0.00471073 0.020287
v  -0.00340488 -0.00957249 -0.0185057
v  -0.00156948 -0.00483184 0.020287
v  -0.0027469 -0.00978174 -0.0185057
v  -0.00122849 -0.00492938 0.020287
v  -0.00207587 -0.00994576 -0.0185057
v  -0.000881475 -0.00500286 0.020287
v  -0.00139144 -0.0100644 -0.0185057
v  -0.000530443 -0.00505206 0.020287
v  -0.000699857 -0.0101359 -0.0185057
v  -0.000176499 -0.00507677 0.020287
v  2.46009e-06 -0.0101597 -0.0185057
v  0.000177974 -0.00507683 0.020287
v  0.000700236 -0.0101358 -0.0185057
v  0.000532098 -0.00505181 0.020287
v  0.00139365 -0.0100638 -0.0185057
v  0.000883121 -0.00500222 0.020287
v  0.00207666 -0.00994543 -0.0185057
v  0.00123028 -0.00492798 0.020287
v  0.00274843 -0.00978111 -0.0185057
v  0.00157077 -0.00483002 0.020287
v  0.00340607 -0.009572 -0.0185057
v  0.00190418 -0.00470832 0.020287
v  0.00404729 -0.00931906 -0.0185057
v  0.00222763 -0.00456416 0.020287
v  0.00467053 -0.00902293 -0.0185057
v  0.00254098 -0.00439748 0.020287
v  0.00527226 -0.00868507 -0.0185057
v  0.00284128 -0.00420997 0.020287
v  0.00585216 -0.00830556 -0.0185057
v  0.00312862 -0.00400144 0.020287
v  0.00640542 -0.00788654 -0.0185057
v  0.00339996 -0.00377405 0.020287
v  0.00693424 -0.0074255 -0.0185057
v  0.0036554 -0.00352733 0.020287
v  0.00742801 -0.00693178 -0.0185057
v  0.00389228 -0.00326426 0.020287
v  0.00788697 -0.00640443 -0.0185057
v  0.00411083 -0.0029843 0.020287
v  0.0083062 -0.00585075 -0.0185057
v  0.00430866 -0.00269087 0.020287
v  0.00868551 -0.0052712 -0.0185057
v  0.00448607 -0.00238325 0.020287
v  0.00902355 -0.00466903 -0.0185057
v  0.00464102 -0.00206523 0.020287
v  0.00931951 -0.00404619 -0.0185057
v  0.00477363 -0.00173583 0.020287
v  0.00957263 -0.00340456 -0.0185057
v  0.0048827 -0.00139936 0.020287
v  0.00978155 -0.00274736 -0.0185057
v  0.00496841 -0.00105469 0.020287
v  0.009946 -0.00207528 -0.0185057
v  0.00502989 -0.000706419 0.020287
v  0.0100642 -0.00139265 -0.0185057
v  0.00506708 -0.000354856 0.020287
v  0.0101355 -0.000700888 -0.0185057
v  0.00508 6.22121e-19 0.020287
v  0.01016 1.24424e-18 -0.0185057
v  0.0101355 0.000700888 -0.0185057
v  0.00506697 0.000358786 0.020287
v  0.010064 0.0013932 -0.0185057
v  0.00502975 0.000712122 0.020287
v  0.00994533 0.00207691 -0.0185057
v  0.00496832 0.00106001 0.020287
v  0.00978113 0.00274837 -0.0185057
v  0.0048827 0.00140244 0.020287
v  0.00957204 0.00340597 -0.0185057
v  0.00477329 0.00173845 0.020287
v  0.00931895 0.00404754 -0.0185057
v  0.00464156 0.00206445 0.020287
v  0.00902309 0.00467013 -0.0185057
v  0.0044868 0.00238217 0.020287
v  0.00868485 0.00527278 -0.0185057
v  0.00431075 0.00268746 0.020287
v  0.00830592 0.00585143 -0.0185057
v  0.00411298 0.00298128 0.020287
v  0.00788536 0.0064069 -0.0185057
v  0.00389436 0.00326172 0.020287
v  0.00742787 0.006932 -0.0185057
v  0.00365576 0.00352676 0.020287
v  0.00693077 0.0074286 -0.0185057
v  0.00339747 0.00377676 0.020287
v  0.00640498 0.00788674 -0.0185057
v  0.00312559 0.00400471 0.020287
v  0.00585041 0.00830634 -0.0185057
v  0.0028374 0.00421374 0.020287
v  0.00527135 0.00868544 -0.0185057
v  0.00253759 0.00440093 0.020287
v  0.00466905 0.00902354 -0.0185057
v  0.00222609 0.00456634 0.020287
v  0.00404601 0.00931958 -0.0185057
v  0.00190371 0.00470979 0.020287
v  0.00340488 0.00957249 -0.0185057
v  0.00157309 0.0048302 0.020287
v  0.0027469 0.00978174 -0.0185057
v  0.00123294 0.00492811 0.020287
v  0.00207587 0.00994576 -0.0185057

# 0 UV coordinates

# 184 vertex normals
vn 0.103968 0.986069 0.129844
vn 0.0675935 0.989228 0.129844
vn 0.0348361 0.990922 0.129844
vn 0.134918 0.982313 0.129844
vn 0.172637 0.97639 0.129844
vn -8.17945e-05 0.991534 0.129844
vn -0.0344597 0.990936 0.129844
vn -0.0677836 0.989215 0.129844
vn -0.103441 0.986124 0.129844
vn -0.135206 0.982273 0.129844
vn -0.171945 0.976512 0.129844
vn -0.201973 0.970746 0.129844
vn -0.239581 0.962155 0.129844
vn -0.267726 0.954706 0.129844
vn -0.306148 0.943088 0.129844
vn -0.332231 0.934218 0.129844
vn -0.371176 0.91944 0.129844
vn -0.395194 0.909375 0.129844
vn -0.434499 0.891264 0.129844
vn -0.456293 0.880305 0.129844
vn -0.495624 0.858776 0.129844
vn -0.515316 0.847107 0.129844
vn -0.554436 0.822035 0.129844
vn -0.57197 0.809932 0.129844
vn -0.610433 0.781353 0.129844
vn -0.625926 0.768998 0.129844
vn -0.663553 0.736775 0.129844
vn -0.676942 0.724493 0.129844
vn -0.713285 0.688742 0.129844
vn -0.724823 0.676588 0.129844
vn -0.759662 0.637223 0.129844
vn -0.769289 0.625568 0.129844
vn -0.802193 0.582776 0.129844
vn -0.810168 0.571637 0.129844
vn -0.840952 0.525299 0.129844
vn -0.847304 0.514992 0.129844
vn -0.875468 0.465507 0.129844
vn -0.880459 0.455997 0.129844
vn -0.905862 0.403181 0.129844
vn -0.909505 0.394894 0.129844
vn -0.931702 0.339223 0.129844
vn -0.934345 0.331872 0.129844
vn -0.953144 0.273236 0.129844
vn -0.954804 0.267375 0.129844
vn -0.96983 0.206326 0.129844
vn -0.970808 0.201674 0.129844
vn -0.981893 0.137937 0.129844
vn -0.982317 0.134884 0.129844
vn -0.98914 0.0688711 0.129844
vn -0.98923 0.067556 0.129844
vn -0.991534 0 0.129844
vn -0.991534 8.66791e-17 0.129844
vn -0.98923 -0.067557 0.129844
vn -0.98914 -0.0688632 0.129844
vn -0.982292 -0.135067 0.129844
vn -0.981901 -0.137882 0.129844
vn -0.970804 -0.201694 0.129844
vn -0.969933 -0.20584 0.129844
vn -0.954758 -0.26754 0.129844
vn -0.953171 -0.27314 0.129844
vn -0.934287 -0.332035 0.129844
vn -0.931847 -0.338823 0.129844
vn -0.909476 -0.394961 0.129844
vn -0.905902 -0.40309 0.129844
vn -0.880374 -0.45616 0.129844
vn -0.875636 -0.465191 0.129844
vn -0.847196 -0.51517 0.129844
vn -0.841018 -0.525194 0.129844
vn -0.810089 -0.571748 0.129844
vn -0.802378 -0.58252 0.129844
vn -0.769153 -0.625735 0.129844
vn -0.759748 -0.637121 0.129844
vn -0.724658 -0.676765 0.129844
vn -0.713473 -0.688547 0.129844
vn -0.67681 -0.724616 0.129844
vn -0.663681 -0.73666 0.129844
vn -0.625761 -0.769132 0.129844
vn -0.610724 -0.781125 0.129844
vn -0.571821 -0.810038 0.129844
vn -0.554767 -0.821812 0.129844
vn -0.515243 -0.847151 0.129844
vn -0.49615 -0.858473 0.129844
vn -0.456183 -0.880362 0.129844
vn -0.4351 -0.890971 0.129844
vn -0.39499 -0.909463 0.129844
vn -0.371939 -0.919131 0.129844
vn -0.331972 -0.93431 0.129844
vn -0.306941 -0.94283 0.129844
vn -0.267395 -0.954799 0.129844
vn -0.24041 -0.961948 0.129844
vn -0.201601 -0.970823 0.129844
vn -0.172637 -0.97639 0.129844
vn -0.134918 -0.982313 0.129844
vn -0.103968 -0.986069 0.129844
vn -0.0675935 -0.989228 0.129844
vn -0.0348361 -0.990922 0.129844
vn 8.17945e-05 -0.991534 0.129844
vn 0.0344597 -0.990936 0.129844
vn 0.0677836 -0.989215 0.129844
vn 0.103441 -0.986124 0.129844
vn 0.135206 -0.982273 0.129844
vn 0.171945 -0.976512 0.129844
vn 0.201973 -0.970746 0.129844
vn 0.239581 -0.962155 0.129844
vn 0.267726 -0.954706 0.129844
vn 0.306148 -0.943088 0.129844
vn 0.332231 -0.934218 0.129844
vn 0.371176 -0.91944 0.129844
vn 0.395194 -0.909375 0.129844
vn 0.434499 -0.891264 0.129844
vn 0.456293 -0.880305 0.129844
vn 0.495624 -0.858776 0.129844
vn 0.515316 -0.847107 0.129844
vn 0.554436 -0.822035 0.129844
vn 0.57197 -0.809932 0.129844
vn 0.610433 -0.781353 0.129844
vn 0.625926 -0.768998 0.129844
vn 0.663553 -0.736775 0.129844
vn 0.676942 -0.724493 0.129844
vn 0.713285 -0.688742 0.129844
vn 0.724823 -0.676588 0.129844
vn 0.759662 -0.637223 0.129844
vn 0.769289 -0.625568 0.129844
vn 0.802193 -0.582776 0.129844
vn 0.810168 -0.571637 0.129844
vn 0.840952 -0.525299 0.129844
vn 0.847304 -0.514992 0.129844
vn 0.875468 -0.465507 0.129844
vn 0.880459 -0.455997 0.129844
vn 0.905862 -0.403181 0.129844
vn 0.909505 -0.394894 0.129844
vn 0.931702 -0.339223 0.129844
vn 0.934345 -0.331872 0.129844
vn 0.953144 -0.273236 0.129844
vn 0.954804 -0.267375 0.129844
vn 0.96983 -0.206326 0.129844
vn 0.970808 -0.201674 0.129844
vn 0.981893 -0.137937 0.129844
vn 0.982317 -0.134884 0.129844
vn 0.98914 -0.0688711 0.129844
vn 0.98923 -0.067556 0.129844
vn 0.991534 0 0.129844
vn 0.991534 1.73358e-16 0.129844
vn 0.98923 0.067557 0.129844
vn 0.98914 0.0688632 0.129844
vn 0.982292 0.135067 0.129844
vn 0.981901 0.137882 0.129844
vn 0.970804 0.201694 0.129844
vn 0.969933 0.20584 0.129844
vn 0.954758 0.26754 0.129844
vn 0.953171 0.27314 0.129844
vn 0.934287 0.332035 0.129844
vn 0.931847 0.338823 0.129844
vn 0.909476 0.394961 0.129844
vn 0.905902 0.40309 0.129844
vn 0.880374 0.45616 0.129844
vn 0.875636 0.465191 0.129844
vn 0.847196 0.51517 0.129844
vn 0.841018 0.525194 0.129844
vn 0.810089 0.571748 0.129844
vn 0.802378 0.58252 0.129844
vn 0.769153 0.625735 0.129844
vn 0.759748 0.637121 0.129844
vn 0.724658 0.676765 0.129844
vn 0.713473 0.688547 0.129844
vn 0.67681 0.724616 0.129844
vn 0.663681 0.73666 0.129844
vn 0.625761 0.769132 0.129844
vn 0.610724 0.781125 0.129844
vn 0.571821 0.810038 0.129844
vn 0.554767 0.821812 0.129844
vn 0.515243 0.847151 0.129844
vn 0.49615 0.858473 0.129844
vn 0.456183 0.880362 0.129844
vn 0.4351 0.890971 0.129844
vn 0.39499 0.909463 0.129844
vn 0.371939 0.919131 0.129844
vn 0.331972 0.93431 0.129844
vn 0.306941 0.94283 0.129844
vn 0.267395 0.954799 0.129844
vn 0.24041 0.961948 0.129844
vn 0.201601 0.970823 0.129844
vn -6.245e-17 0 1
vn 6.245e-17 0 -1

# Mesh '$ColladaAutoName$_0_ID2' with 360 faces
g $ColladaAutoName$_0_ID2
usemtl ID9
f  1//1 2//2 3//3
f  1//1 4//4 2//2
f  1//1 5//5 4//4
f  3//3 2//2 6//6
f  6//6 7//7 3//3
f  7//7 6//6 8//8
f  7//7 8//8 9//9
f  10//10 9//9 8//8
f  11//11 9//9 10//10
f  10//10 12//12 11//11
f  12//12 13//13 11//11
f  13//13 12//12 14//14
f  13//13 14//14 15//15
f  16//16 15//15 14//14
f  17//17 15//15 16//16
f  16//16 18//18 17//17
f  18//18 19//19 17//17
f  19//19 18//18 20//20
f  19//19 20//20 21//21
f  22//22 21//21 20//20
f  23//23 21//21 22//22
f  22//22 24//24 23//23
f  24//24 25//25 23//23
f  25//25 24//24 26//26
f  25//25 26//26 27//27
f  28//28 27//27 26//26
f  29//29 27//27 28//28
f  28//28 30//30 29//29
f  30//30 31//31 29//29
f  31//31 30//30 32//32
f  31//31 32//32 33//33
f  34//34 33//33 32//32
f  35//35 33//33 34//34
f  34//34 36//36 35//35
f  36//36 37//37 35//35
f  37//37 36//36 38//38
f  37//37 38//38 39//39
f  40//40 39//39 38//38
f  41//41 39//39 40//40
f  40//40 42//42 41//41
f  42//42 43//43 41//41
f  43//43 42//42 44//44
f  43//43 44//44 45//45
f  46//46 45//45 44//44
f  47//47 45//45 46//46
f  46//46 48//48 47//47
f  48//48 49//49 47//47
f  49//49 48//48 50//50
f  49//49 50//50 51//51
f  51//51 50//50 52//52
f  53//53 54//54 51//51
f  53//53 51//51 52//52
f  54//54 53//53 55//55
f  56//56 54//54 55//55
f  55//55 57//57 56//56
f  56//56 57//57 58//58
f  59//59 58//58 57//57
f  59//59 60//60 58//58
f  60//60 59//59 61//61
f  62//62 60//60 61//61
f  61//61 63//63 62//62
f  62//62 63//63 64//64
f  65//65 64//64 63//63
f  65//65 66//66 64//64
f  66//66 65//65 67//67
f  68//68 66//66 67//67
f  67//67 69//69 68//68
f  68//68 69//69 70//70
f  71//71 70//70 69//69
f  71//71 72//72 70//70
f  72//72 71//71 73//73
f  74//74 72//72 73//73
f  73//73 75//75 74//74
f  76//76 74//74 75//75
f  75//75 77//77 76//76
f  78//78 76//76 77//77
f  78//78 77//77 79//79
f  78//78 79//79 80//80
f  81//81 80//80 79//79
f  82//82 80//80 81//81
f  83//83 82//82 81//81
f  82//82 83//83 84//84
f  84//84 83//83 85//85
f  85//85 86//86 84//84
f  87//87 86//86 85//85
f  87//87 88//88 86//86
f  88//88 87//87 89//89
f  89//89 90//90 88//88
f  89//89 91//91 90//90
f  91//91 92//92 90//90
f  91//91 93//93 92//92
f  94//94 92//92 93//93
f  95//95 94//94 93//93
f  94//94 95//95 96//96
f  96//96 95//95 97//97
f  96//96 97//97 98//98
f  97//97 99//99 98//98
f  98//98 99//99 100//100
f  99//99 101//101 100//100
f  102//102 100//100 101//101
f  102//102 101//101 103//103
f  104//104 102//102 103//103
f  105//105 104//104 103//103
f  104//104 105//105 106//106
f  106//106 105//105 107//107
f  108//108 106//106 107//107
f  107//107 109//109 108//108
f  108//108 109//109 110//110
f  109//109 111//111 110//110
f  110//110 111//111 112//112
f  112//112 111//111 113//113
f  113//113 114//114 112//112
f  114//114 113//113 115//115
f  116//116 114//114 115//115
f  117//117 116//116 115//115
f  118//118 116//116 117//117
f  118//118 117//117 119//119
f  119//119 120//120 118//118
f  120//120 119//119 121//121
f  122//122 120//120 121//121
f  123//123 122//122 121//121
f  122//122 123//123 124//124
f  123//123 125//125 124//124
f  124//124 125//125 126//126
f  126//126 125//125 127//127
f  128//128 126//126 127//127
f  127//127 129//129 128//128
f  128//128 129//129 130//130
f  131//131 130//130 129//129
f  131//131 132//132 130//130
f  133//133 132//132 131//131
f  134//134 132//132 133//133
f  134//134 133//133 135//135
f  134//134 135//135 136//136
f  137//137 136//136 135//135
f  136//136 137//137 138//138
f  138//138 137//137 139//139
f  138//138 139//139 140//140
f  140//140 139//139 141//141
f  141//141 142//142 140//140
f  143//143 142//142 141//141
f  142//142 143//143 144//144
f  142//142 144//144 145//145
f  144//144 146//146 145//145
f  147//147 145//145 146//146
f  146//146 148//148 147//147
f  147//147 148//148 149//149
f  148//148 150//150 149//149
f  150//150 151//151 149//149
f  151//151 150//150 152//152
f  152//152 153//153 151//151
f  154//154 153//153 152//152
f  153//153 154//154 155//155
f  156//156 155//155 154//154
f  157//157 155//155 156//156
f  156//156 158//158 157//157
f  157//157 158//158 159//159
f  160//160 159//159 158//158
f  159//159 160//160 161//161
f  161//161 160//160 162//162
f  161//161 162//162 163//163
f  162//162 164//164 163//163
f  165//165 163//163 164//164
f  165//165 164//164 166//166
f  165//165 166//166 167//167
f  166//166 168//168 167//167
f  168//168 169//169 167//167
f  168//168 170//170 169//169
f  171//171 169//169 170//170
f  171//171 170//170 172//172
f  171//171 172//172 173//173
f  172//172 174//174 173//173
f  175//175 173//173 174//174
f  176//176 175//175 174//174
f  176//176 177//177 175//175
f  178//178 177//177 176//176
f  177//177 178//178 179//179
f  179//179 178//178 180//180
f  180//180 181//181 179//179
f  182//182 181//181 180//180
f  182//182 5//5 181//181
f  4//4 5//5 182//182
f  56//183 58//183 60//183
f  56//183 60//183 98//183
f  56//183 98//183 102//183
f  56//183 102//183 54//183
f  98//183 60//183 62//183
f  98//183 62//183 64//183
f  64//183 96//183 98//183
f  100//183 102//183 98//183
f  102//183 104//183 54//183
f  106//183 54//183 104//183
f  106//183 108//183 54//183
f  49//183 54//183 108//183
f  49//183 51//183 54//183
f  49//183 108//183 110//183
f  112//183 49//183 110//183
f  112//183 47//183 49//183
f  45//183 47//183 112//183
f  114//183 45//183 112//183
f  116//183 43//183 45//183
f  114//183 116//183 45//183
f  41//183 43//183 116//183
f  118//183 41//183 116//183
f  41//183 118//183 39//183
f  39//183 118//183 120//183
f  120//183 37//183 39//183
f  122//183 37//183 120//183
f  37//183 122//183 35//183
f  33//183 122//183 124//183
f  122//183 33//183 35//183
f  124//183 31//183 33//183
f  126//183 31//183 124//183
f  128//183 29//183 31//183
f  128//183 31//183 126//183
f  29//183 128//183 130//183
f  130//183 27//183 29//183
f  132//183 27//183 130//183
f  27//183 132//183 25//183
f  25//183 132//183 134//183
f  25//183 134//183 136//183
f  23//183 25//183 136//183
f  23//183 136//183 21//183
f  138//183 21//183 136//183
f  140//183 21//183 138//183
f  140//183 19//183 21//183
f  19//183 140//183 17//183
f  140//183 142//183 145//183
f  17//183 140//183 145//183
f  17//183 145//183 15//183
f  145//183 147//183 11//183
f  145//183 13//183 15//183
f  145//183 11//183 13//183
f  147//183 151//183 7//183
f  147//183 149//183 151//183
f  147//183 7//183 11//183
f  11//183 7//183 9//183
f  7//183 153//183 155//183
f  155//183 3//183 7//183
f  7//183 151//183 153//183
f  5//183 1//183 155//183
f  159//183 155//183 157//183
f  155//183 159//183 5//183
f  3//183 155//183 1//183
f  5//183 165//183 179//183
f  5//183 179//183 181//183
f  5//183 159//183 165//183
f  159//183 161//183 165//183
f  165//183 161//183 163//183
f  165//183 171//183 177//183
f  169//183 165//183 167//183
f  165//183 169//183 171//183
f  177//183 179//183 165//183
f  175//183 171//183 173//183
f  177//183 171//183 175//183
f  96//183 64//183 94//183
f  66//183 68//183 64//183
f  68//183 92//183 64//183
f  64//183 92//183 94//183
f  74//183 68//183 70//183
f  92//183 68//183 74//183
f  92//183 88//183 90//183
f  88//183 92//183 74//183
f  88//183 74//183 86//183
f  86//183 74//183 80//183
f  84//183 86//183 80//183
f  80//183 74//183 78//183
f  82//183 84//183 80//183
f  74//183 76//183 78//183
f  70//183 72//183 74//183
f  107//184 127//184 123//184
f  123//184 109//184 107//184
f  105//184 127//184 107//184
f  123//184 127//184 125//184
f  129//184 127//184 105//184
f  123//184 121//184 119//184
f  123//184 119//184 109//184
f  119//184 111//184 109//184
f  113//184 119//184 117//184
f  111//184 119//184 113//184
f  115//184 113//184 117//184
f  129//184 105//184 103//184
f  103//184 131//184 129//184
f  103//184 101//184 131//184
f  131//184 101//184 133//184
f  101//184 135//184 133//184
f  97//184 135//184 101//184
f  97//184 101//184 99//184
f  97//184 137//184 135//184
f  139//184 137//184 97//184
f  97//184 95//184 141//184
f  141//184 139//184 97//184
f  93//184 141//184 95//184
f  93//184 91//184 141//184
f  91//184 143//184 141//184
f  91//184 89//184 144//184
f  91//184 144//184 143//184
f  89//184 87//184 144//184
f  146//184 144//184 87//184
f  87//184 148//184 146//184
f  87//184 85//184 148//184
f  83//184 148//184 85//184
f  150//184 148//184 83//184
f  81//184 150//184 83//184
f  150//184 81//184 152//184
f  152//184 81//184 79//184
f  154//184 152//184 79//184
f  156//184 154//184 79//184
f  156//184 79//184 77//184
f  75//184 158//184 156//184
f  156//184 77//184 75//184
f  158//184 75//184 160//184
f  73//184 160//184 75//184
f  73//184 162//184 160//184
f  73//184 71//184 162//184
f  162//184 71//184 164//184
f  69//184 164//184 71//184
f  164//184 69//184 166//184
f  166//184 69//184 67//184
f  168//184 166//184 65//184
f  166//184 67//184 65//184
f  168//184 65//184 170//184
f  170//184 65//184 63//184
f  63//184 61//184 170//184
f  61//184 172//184 170//184
f  61//184 59//184 172//184
f  172//184 59//184 174//184
f  57//184 174//184 59//184
f  57//184 176//184 174//184
f  57//184 178//184 176//184
f  57//184 55//184 178//184
f  180//184 178//184 53//184
f  55//184 53//184 178//184
f  182//184 180//184 53//184
f  52//184 182//184 53//184
f  182//184 50//184 4//184
f  182//184 52//184 50//184
f  50//184 2//184 4//184
f  6//184 50//184 48//184
f  6//184 2//184 50//184
f  48//184 46//184 6//184
f  44//184 6//184 46//184
f  6//184 10//184 8//184
f  44//184 10//184 6//184
f  42//184 10//184 44//184
f  10//184 40//184 12//184
f  42//184 40//184 10//184
f  40//184 38//184 12//184
f  38//184 14//184 12//184
f  14//184 38//184 36//184
f  36//184 16//184 14//184
f  32//184 16//184 36//184
f  36//184 34//184 32//184
f  32//184 18//184 16//184
f  30//184 28//184 32//184
f  28//184 18//184 32//184
f  20//184 18//184 28//184
f  28//184 26//184 22//184
f  28//184 22//184 20//184
f  22//184 26//184 24//184

