# File produced by Open Asset Import Library (http://www.assimp.sf.net)
# (assimp v3.1.187496374)

mtllib 5 - cone.obj.mtl

# 105 vertex positions
v  0.0126761 0.000775251 0
v  0 0 0.0254
v  0.0127 1.5553e-18 -1.04083e-17
v  0.0126061 0.00154201 0
v  0.0126761 -0.000775251 0
v  0.0126059 -0.00154245 0
v  0.0124896 -0.00230174 0
v  0.0123283 -0.00304974 0
v  0.0121227 -0.00378534 0
v  0.0118736 -0.00450634 0
v  0.0115819 -0.00521052 0
v  0.0112481 -0.00589672 0
v  0.0108736 -0.00656176 0
v  0.0104584 -0.00720535 0
v  0.0100042 -0.00782351 0
v  0.00950925 -0.00841803 0
v  0.00898026 -0.00898026 0
v  0.00841515 -0.00951152 0
v  0.00782307 -0.0100044 0
v  0.00720388 -0.010459 0
v  0.00656095 -0.0108739 0
v  0.00589539 -0.0112487 0
v  0.00520942 -0.0115823 0
v  0.00450524 -0.011874 0
v  0.00378402 -0.0121232 0
v  0.00304893 -0.0123287 0
v  0.00230027 -0.0124902 0
v  0.00154201 -0.0126061 0
v  0.00077161 -0.0126765 0
v  -5.9952e-18 -0.0127 0
v  -0.000775251 -0.0126761 0
v  -0.00154245 -0.0126059 0
v  -0.00230174 -0.0124896 0
v  -0.00304974 -0.0123283 0
v  -0.00378534 -0.0121227 0
v  -0.00450634 -0.0118736 0
v  -0.00521052 -0.0115819 0
v  -0.00589672 -0.0112481 0
v  -0.00656176 -0.0108736 0
v  -0.00720535 -0.0104584 0
v  -0.00782351 -0.0100042 0
v  -0.00841803 -0.00950925 0
v  -0.00898026 -0.00898026 0
v  -0.00951152 -0.00841515 0
v  -0.0100044 -0.00782307 0
v  -0.010459 -0.00720388 0
v  -0.0108739 -0.00656095 0
v  -0.0112487 -0.00589539 0
v  -0.0115823 -0.00520942 0
v  -0.011874 -0.00450524 0
v  -0.0121232 -0.00378402 0
v  -0.0123287 -0.00304893 0
v  -0.0124902 -0.00230027 0
v  -0.0126761 -0.000775251 0
v  -0.0127 0 -1.04083e-17
v  -0.0126061 -0.00154201 0
v  -0.0126761 0.000775251 0
v  -0.0126059 0.00154245 0
v  -0.0124896 0.00230174 0
v  -0.0123283 0.00304974 0
v  -0.0121227 0.00378534 0
v  -0.0118736 0.00450634 0
v  -0.0115819 0.00521052 0
v  -0.0112481 0.00589672 0
v  -0.0108736 0.00656176 0
v  -0.0104584 0.00720535 0
v  -0.0100042 0.00782351 0
v  -0.00950925 0.00841803 0
v  -0.00898026 0.00898026 0
v  -0.00841515 0.00951152 0
v  -0.00782307 0.0100044 0
v  -0.00720388 0.010459 0
v  -0.00656095 0.0108739 0
v  -0.00589539 0.0112487 0
v  -0.00520942 0.0115823 0
v  -0.00450524 0.011874 0
v  -0.00378402 0.0121232 0
v  -0.00304893 0.0123287 0
v  -0.00230027 0.0124902 0
v  -0.00154201 0.0126061 0
v  -0.00077161 0.0126765 0
v  7.77156e-18 0.0127 0
v  0.000775251 0.0126761 0
v  0.00154245 0.0126059 0
v  0.00230174 0.0124896 0
v  0.00304974 0.0123283 0
v  0.00378534 0.0121227 0
v  0.00450634 0.0118736 0
v  0.00521052 0.0115819 0
v  0.00589672 0.0112481 0
v  0.00656176 0.0108736 0
v  0.00720535 0.0104584 0
v  0.00782351 0.0100042 0
v  0.00841803 0.00950925 0
v  0.00898026 0.00898026 0
v  0.00951152 0.00841515 0
v  0.0100044 0.00782307 0
v  0.010459 0.00720388 0
v  0.0108739 0.00656095 0
v  0.0112487 0.00589539 0
v  0.0115823 0.00520942 0
v  0.011874 0.00450524 0
v  0.0121232 0.00378402 0
v  0.0123287 0.00304893 0
v  0.0124902 0.00230027 0

# 0 UV coordinates

# 107 vertex normals
vn 0.892799 0.0539356 0.447214
vn -0.894427 1.04945e-09 -0.447214
vn 0.894427 1.87656e-16 0.447214
vn 0.887902 0.107845 0.447214
vn 0.894427 -1.04945e-09 -0.447214
vn 0.892799 -0.0539356 0.447214
vn 0.887916 -0.107728 0.447214
vn 0.879783 -0.161187 0.447214
vn 0.868459 -0.213959 0.447214
vn 0.853963 -0.265982 0.447214
vn 0.836336 -0.317085 0.447214
vn 0.815677 -0.366975 0.447214
vn 0.79204 -0.41554 0.447214
vn 0.765493 -0.462623 0.447214
vn 0.736176 -0.507981 0.447214
vn 0.704173 -0.551489 0.447214
vn 0.669581 -0.593011 0.447214
vn 0.632566 -0.632345 0.447214
vn 0.593245 -0.669373 0.447214
vn 0.551736 -0.70398 0.447214
vn 0.508224 -0.736008 0.447214
vn 0.462846 -0.765358 0.447214
vn 0.415755 -0.791926 0.447214
vn 0.367164 -0.815592 0.447214
vn 0.317274 -0.836264 0.447214
vn 0.266215 -0.853891 0.447214
vn 0.214186 -0.868403 0.447214
vn 0.161376 -0.879749 0.447214
vn 0.107932 -0.887891 0.447214
vn 0.0540787 -0.892791 0.447214
vn 5.12862e-05 -0.894427 0.447214
vn -0.0539595 -0.892798 0.447214
vn -0.10775 -0.887913 0.447214
vn -0.16114 -0.879792 0.447214
vn -0.213974 -0.868456 0.447214
vn -0.266046 -0.853943 0.447214
vn -0.317147 -0.836312 0.447214
vn -0.367095 -0.815623 0.447214
vn -0.415696 -0.791958 0.447214
vn -0.462732 -0.765427 0.447214
vn -0.508098 -0.736095 0.447214
vn -0.551627 -0.704065 0.447214
vn -0.593117 -0.669487 0.447214
vn -0.63246 -0.632452 0.447214
vn -0.66951 -0.593091 0.447214
vn -0.704085 -0.551601 0.447214
vn -0.736105 -0.508084 0.447214
vn -0.765457 -0.462684 0.447214
vn -0.791982 -0.41565 0.447214
vn -0.81563 -0.367079 0.447214
vn -0.836321 -0.317123 0.447214
vn -0.85393 -0.266089 0.447214
vn -0.868432 -0.214068 0.447214
vn -0.879781 -0.161198 0.447214
vn -0.892799 -0.0539356 0.447214
vn -0.894427 0 0.447214
vn -0.887902 -0.107845 0.447214
vn -0.892799 0.0539356 0.447214
vn -0.887916 0.107728 0.447214
vn -0.879783 0.161187 0.447214
vn -0.868459 0.213959 0.447214
vn -0.853963 0.265982 0.447214
vn -0.836336 0.317085 0.447214
vn -0.815677 0.366975 0.447214
vn -0.79204 0.41554 0.447214
vn -0.765493 0.462623 0.447214
vn -0.736176 0.507981 0.447214
vn -0.704173 0.551489 0.447214
vn -0.669581 0.593011 0.447214
vn -0.632566 0.632345 0.447214
vn -0.593245 0.669373 0.447214
vn -0.551736 0.70398 0.447214
vn -0.508224 0.736008 0.447214
vn -0.462846 0.765358 0.447214
vn -0.415755 0.791926 0.447214
vn -0.367164 0.815592 0.447214
vn -0.317274 0.836264 0.447214
vn -0.266215 0.853891 0.447214
vn -0.214186 0.868403 0.447214
vn -0.161376 0.879749 0.447214
vn -0.107932 0.887891 0.447214
vn -0.0540787 0.892791 0.447214
vn -5.12862e-05 0.894427 0.447214
vn 0.0539595 0.892798 0.447214
vn 0.10775 0.887913 0.447214
vn 0.16114 0.879792 0.447214
vn 0.213974 0.868456 0.447214
vn 0.266046 0.853943 0.447214
vn 0.317147 0.836312 0.447214
vn 0.367095 0.815623 0.447214
vn 0.415696 0.791958 0.447214
vn 0.462732 0.765427 0.447214
vn 0.508098 0.736095 0.447214
vn 0.551627 0.704065 0.447214
vn 0.593117 0.669487 0.447214
vn 0.63246 0.632452 0.447214
vn 0.66951 0.593091 0.447214
vn 0.704085 0.551601 0.447214
vn 0.736105 0.508084 0.447214
vn 0.765457 0.462684 0.447214
vn 0.791982 0.41565 0.447214
vn 0.81563 0.367079 0.447214
vn 0.836321 0.317123 0.447214
vn 0.85393 0.266089 0.447214
vn 0.868432 0.214068 0.447214
vn 0.879781 0.161198 0.447214
vn -0 -0 -1

# Mesh '$ColladaAutoName$_0_ID2' with 206 faces
g $ColladaAutoName$_0_ID2
usemtl ID9
f  1//1 2//2 3//3
f  1//1 4//4 2//2
f  3//3 2//5 5//6
f  2//5 6//7 5//6
f  2//5 7//8 6//7
f  2//5 8//9 7//8
f  2//5 9//10 8//9
f  2//5 10//11 9//10
f  10//11 2//5 11//12
f  2//5 12//13 11//12
f  13//14 12//13 2//5
f  14//15 13//14 2//5
f  2//5 15//16 14//15
f  2//5 16//17 15//16
f  2//5 17//18 16//17
f  2//5 18//19 17//18
f  18//19 2//5 19//20
f  2//5 20//21 19//20
f  2//5 21//22 20//21
f  2//5 22//23 21//22
f  2//5 23//24 22//23
f  2//5 24//25 23//24
f  24//25 2//5 25//26
f  2//5 26//27 25//26
f  2//5 27//28 26//27
f  2//5 28//29 27//28
f  28//29 2//5 29//30
f  2//5 30//31 29//30
f  31//32 30//31 2//5
f  31//32 2//5 32//33
f  33//34 32//33 2//5
f  34//35 33//34 2//5
f  35//36 34//35 2//5
f  35//36 2//5 36//37
f  37//38 36//37 2//5
f  38//39 37//38 2//5
f  39//40 38//39 2//5
f  40//41 39//40 2//5
f  41//42 40//41 2//5
f  42//43 41//42 2//5
f  2//5 43//44 42//43
f  44//45 43//44 2//5
f  45//46 44//45 2//5
f  46//47 45//46 2//5
f  47//48 46//47 2//5
f  2//5 48//49 47//48
f  49//50 48//49 2//5
f  50//51 49//50 2//5
f  51//52 50//51 2//5
f  52//53 51//52 2//5
f  53//54 52//53 2//5
f  54//55 2//5 55//56
f  56//57 53//54 2//5
f  54//55 56//57 2//5
f  55//56 2//2 57//58
f  2//2 58//59 57//58
f  2//2 59//60 58//59
f  2//2 60//61 59//60
f  2//2 61//62 60//61
f  2//2 62//63 61//62
f  62//63 2//2 63//64
f  2//2 64//65 63//64
f  65//66 64//65 2//2
f  66//67 65//66 2//2
f  2//2 67//68 66//67
f  2//2 68//69 67//68
f  2//2 69//70 68//69
f  2//2 70//71 69//70
f  70//71 2//2 71//72
f  2//2 72//73 71//72
f  2//2 73//74 72//73
f  2//2 74//75 73//74
f  2//2 75//76 74//75
f  2//2 76//77 75//76
f  76//77 2//2 77//78
f  2//2 78//79 77//78
f  2//2 79//80 78//79
f  2//2 80//81 79//80
f  80//81 2//2 81//82
f  2//2 82//83 81//82
f  83//84 82//83 2//2
f  83//84 2//2 84//85
f  85//86 84//85 2//2
f  86//87 85//86 2//2
f  87//88 86//87 2//2
f  87//88 2//2 88//89
f  89//90 88//89 2//2
f  90//91 89//90 2//2
f  91//92 90//91 2//2
f  92//93 91//92 2//2
f  93//94 92//93 2//2
f  94//95 93//94 2//2
f  2//2 95//96 94//95
f  96//97 95//96 2//2
f  97//98 96//97 2//2
f  98//99 97//98 2//2
f  99//100 98//99 2//2
f  2//2 100//101 99//100
f  101//102 100//101 2//2
f  102//103 101//102 2//2
f  103//104 102//103 2//2
f  104//105 103//104 2//2
f  105//106 104//105 2//2
f  4//4 105//106 2//2
f  35//107 50//107 51//107
f  50//107 35//107 36//107
f  35//107 51//107 34//107
f  36//107 49//107 50//107
f  37//107 49//107 36//107
f  49//107 37//107 48//107
f  48//107 37//107 44//107
f  38//107 44//107 37//107
f  48//107 44//107 46//107
f  47//107 48//107 46//107
f  46//107 44//107 45//107
f  44//107 39//107 42//107
f  39//107 44//107 38//107
f  44//107 42//107 43//107
f  39//107 40//107 41//107
f  41//107 42//107 39//107
f  34//107 52//107 33//107
f  52//107 34//107 51//107
f  33//107 52//107 53//107
f  56//107 33//107 53//107
f  33//107 54//107 32//107
f  54//107 33//107 56//107
f  31//107 54//107 30//107
f  31//107 32//107 54//107
f  57//107 30//107 54//107
f  55//107 57//107 54//107
f  30//107 57//107 29//107
f  28//107 29//107 57//107
f  28//107 57//107 58//107
f  59//107 28//107 58//107
f  27//107 28//107 59//107
f  60//107 26//107 59//107
f  26//107 27//107 59//107
f  60//107 61//107 25//107
f  26//107 60//107 25//107
f  24//107 61//107 62//107
f  25//107 61//107 24//107
f  62//107 23//107 24//107
f  23//107 62//107 63//107
f  22//107 23//107 63//107
f  22//107 63//107 64//107
f  21//107 22//107 64//107
f  65//107 21//107 64//107
f  21//107 65//107 20//107
f  66//107 20//107 65//107
f  19//107 20//107 67//107
f  66//107 67//107 20//107
f  67//107 18//107 19//107
f  68//107 18//107 67//107
f  18//107 68//107 69//107
f  69//107 17//107 18//107
f  70//107 17//107 69//107
f  70//107 16//107 17//107
f  16//107 70//107 15//107
f  70//107 71//107 15//107
f  72//107 15//107 71//107
f  15//107 72//107 14//107
f  13//107 72//107 73//107
f  14//107 72//107 13//107
f  12//107 13//107 73//107
f  73//107 74//107 12//107
f  12//107 74//107 11//107
f  11//107 74//107 75//107
f  10//107 11//107 75//107
f  76//107 10//107 75//107
f  10//107 76//107 9//107
f  76//107 77//107 9//107
f  8//107 9//107 77//107
f  78//107 8//107 77//107
f  78//107 7//107 8//107
f  79//107 7//107 78//107
f  79//107 80//107 7//107
f  7//107 80//107 6//107
f  80//107 5//107 6//107
f  5//107 80//107 81//107
f  5//107 82//107 1//107
f  3//107 5//107 1//107
f  5//107 81//107 82//107
f  1//107 82//107 83//107
f  85//107 1//107 84//107
f  1//107 83//107 84//107
f  1//107 85//107 4//107
f  104//107 105//107 85//107
f  105//107 4//107 85//107
f  86//107 104//107 85//107
f  86//107 103//107 104//107
f  87//107 103//107 86//107
f  102//107 103//107 87//107
f  88//107 102//107 87//107
f  88//107 101//107 102//107
f  89//107 101//107 88//107
f  89//107 100//107 101//107
f  89//107 90//107 96//107
f  100//107 89//107 96//107
f  100//107 98//107 99//107
f  100//107 96//107 98//107
f  91//107 96//107 90//107
f  96//107 97//107 98//107
f  94//107 96//107 91//107
f  96//107 94//107 95//107
f  94//107 91//107 93//107
f  93//107 91//107 92//107

