# File produced by Open Asset Import Library (http://www.assimp.sf.net)
# (assimp v3.1.187496374)

mtllib 3 - cylinder.obj.mtl

# 148 vertex positions
v  -0.000269526 0.00616099 0
v  0.000273885 0.00616099 0.0254
v  0.000273885 0.00616099 0
v  -0.000269526 0.00616099 0.0254
v  -0.000811051 0.00611525 0
v  -0.000811051 0.00611525 0.0254
v  0.000813465 0.00611447 0.0254
v  0.000813465 0.00611447 0
v  0.00134404 0.0060231 0.0254
v  0.00134404 0.0060231 0
v  0.001864 0.00588722 0
v  0.001864 0.00588722 0.0254
v  0.00236863 0.00570877 0
v  0.00236863 0.00570877 0.0254
v  0.00285748 0.00548793 0
v  0.00285748 0.00548793 0.0254
v  0.00332538 0.00522687 0
v  0.00332538 0.00522687 0.0254
v  0.00377307 0.00492463 0
v  0.00377307 0.00492463 0.0254
v  0.00419311 0.00458585 0.0254
v  0.00419311 0.00458585 0
v  0.00458648 0.00420809 0.0254
v  0.00458648 0.00420809 0
v  0.00494414 0.00380168 0.0254
v  0.00494414 0.00380168 0
v  0.0052649 0.00336675 0.0254
v  0.0052649 0.00336675 0
v  0.00554581 0.00291001 0
v  0.00554581 0.00291001 0.0254
v  0.00578733 0.00243025 0
v  0.00578733 0.00243025 0.0254
v  0.00598665 0.00193429 0
v  0.00598665 0.00193429 0.0254
v  0.00614443 0.00142053 0
v  0.00614443 0.00142053 0.0254
v  0.00625769 0.000896126 0
v  0.00625769 0.000896126 0.0254
v  0.00632622 0.000361647 0.0254
v  0.00632622 0.000361647 0
v  0.00635 -0.000182909 0.0254
v  0.00635 -0.000182909 0
v  0.00632622 -0.000727465 0.0254
v  0.00632622 -0.000727465 0
v  0.00625758 -0.00126221 0.0254
v  0.00625758 -0.00126221 0
v  0.0061434 -0.00178882 0
v  0.0061434 -0.00178882 0.0254
v  0.00598644 -0.00230061 0
v  0.00598644 -0.00230061 0.0254
v  0.00578632 -0.00279851 0
v  0.00578632 -0.00279851 0.0254
v  0.00554547 -0.00327659 0.0254
v  0.00554547 -0.00327659 0
v  0.0052638 -0.00373506 0.0254
v  0.0052638 -0.00373506 0
v  0.00494271 -0.00416914 0
v  0.00494271 -0.00416914 0.0254
v  0.00458298 -0.0045779 0.0254
v  0.00458298 -0.0045779 0
v  0.00419156 -0.00495263 0.0254
v  0.00419156 -0.00495263 0
v  0.00377007 -0.00529231 0.0254
v  0.00377007 -0.00529231 0
v  0.00332402 -0.00559324 0
v  0.00332402 -0.00559324 0.0254
v  0.0028553 -0.00585465 0
v  0.0028553 -0.00585465 0.0254
v  0.0023671 -0.00607522 0
v  0.0023671 -0.00607522 0.0254
v  0.00186192 -0.0062539 0
v  0.00186192 -0.0062539 0.0254
v  0.00134197 -0.00638959 0
v  0.00134197 -0.00638959 0.0254
v  0.000811051 -0.00648107 0
v  0.000811051 -0.00648107 0.0254
v  0.000269526 -0.0065268 0
v  0.000269526 -0.0065268 0.0254
v  -0.000273885 -0.0065268 0.0254
v  -0.000273885 -0.0065268 0
v  -0.000813465 -0.00648029 0
v  -0.000813465 -0.00648029 0.0254
v  -0.00134404 -0.00638892 0
v  -0.00134404 -0.00638892 0.0254
v  -0.001864 -0.00625303 0
v  -0.001864 -0.00625303 0.0254
v  -0.00236863 -0.00607459 0
v  -0.00236863 -0.00607459 0.0254
v  -0.00285748 -0.00585375 0
v  -0.00285748 -0.00585375 0.0254
v  -0.00332538 -0.00559268 0
v  -0.00332538 -0.00559268 0.0254
v  -0.00377307 -0.00529045 0
v  -0.00377307 -0.00529045 0.0254
v  -0.00419311 -0.00495167 0.0254
v  -0.00419311 -0.00495167 0
v  -0.00458648 -0.0045739 0.0254
v  -0.00458648 -0.0045739 0
v  -0.00494414 -0.0041675 0.0254
v  -0.00494414 -0.0041675 0
v  -0.0052649 -0.00373257 0.0254
v  -0.0052649 -0.00373257 0
v  -0.00554581 -0.00327582 0.0254
v  -0.00554581 -0.00327582 0
v  -0.00578733 -0.00279606 0.0254
v  -0.00578733 -0.00279606 0
v  -0.00598665 -0.0023001 0.0254
v  -0.00598665 -0.0023001 0
v  -0.00614443 -0.00178635 0.0254
v  -0.00614443 -0.00178635 0
v  -0.00625769 -0.00126194 0
v  -0.00625769 -0.00126194 0.0254
v  -0.00632622 -0.000727465 0
v  -0.00632622 -0.000727465 0.0254
v  -0.00635 -0.000182909 0.0254
v  -0.00635 -0.000182909 0
v  -0.00632622 0.000361647 0.0254
v  -0.00632622 0.000361647 0
v  -0.00625758 0.000896388 0.0254
v  -0.00625758 0.000896388 0
v  -0.0061434 0.001423 0
v  -0.0061434 0.001423 0.0254
v  -0.00598644 0.00193479 0
v  -0.00598644 0.00193479 0.0254
v  -0.00578632 0.00243269 0
v  -0.00578632 0.00243269 0.0254
v  -0.00554547 0.00291078 0.0254
v  -0.00554547 0.00291078 0
v  -0.0052638 0.00336924 0
v  -0.0052638 0.00336924 0.0254
v  -0.00494271 0.00380332 0
v  -0.00494271 0.00380332 0.0254
v  -0.00458298 0.00421208 0.0254
v  -0.00458298 0.00421208 0
v  -0.00419156 0.00458681 0.0254
v  -0.00419156 0.00458681 0
v  -0.00377007 0.00492649 0.0254
v  -0.00377007 0.00492649 0
v  -0.00332402 0.00522743 0
v  -0.00332402 0.00522743 0.0254
v  -0.0028553 0.00548884 0
v  -0.0028553 0.00548884 0.0254
v  -0.0023671 0.0057094 0
v  -0.0023671 0.0057094 0.0254
v  -0.00186192 0.00588808 0
v  -0.00186192 0.00588808 0.0254
v  -0.00134197 0.00602377 0
v  -0.00134197 0.00602377 0.0254

# 0 UV coordinates

# 148 vertex normals
vn -0.0425513 0.999094 0
vn 0.0425513 0.999094 0
vn 0.042317 0.999104 0
vn -0.0423169 0.999104 0
vn -0.127342 0.991859 0
vn -0.126874 0.991919 0
vn 0.127342 0.991859 0
vn 0.126874 0.991919 0
vn 0.211169 0.97745 0
vn 0.210428 0.977609 0
vn 0.292562 0.956246 0
vn 0.293301 0.95602 0
vn 0.372685 0.927958 0
vn 0.37327 0.927723 0
vn 0.450048 0.893004 0
vn 0.450596 0.892728 0
vn 0.524242 0.851569 0
vn 0.524593 0.851353 0
vn 0.594681 0.803962 0
vn 0.59486 0.803829 0
vn 0.660906 0.750468 0
vn 0.660714 0.750638 0
vn 0.722146 0.691741 0
vn 0.722025 0.691867 0
vn 0.778244 0.627962 0
vn 0.778108 0.62813 0
vn 0.828718 0.559667 0
vn 0.828527 0.559949 0
vn 0.873057 0.487618 0
vn 0.873141 0.487467 0
vn 0.911251 0.411852 0
vn 0.911349 0.411635 0
vn 0.942848 0.333222 0
vn 0.942971 0.332876 0
vn 0.967739 0.251956 0
vn 0.967768 0.251843 0
vn 0.9856 0.169093 0
vn 0.985661 0.168736 0
vn 0.996418 0.0845638 0
vn 0.996417 0.0845716 0
vn 1 1.39871e-16 0
vn 0.996417 -0.0845717 0
vn 0.996418 -0.0845638 0
vn 0.9856 -0.169093 0
vn 0.985661 -0.168736 0
vn 0.967768 -0.251843 0
vn 0.967739 -0.251956 0
vn 0.942971 -0.332876 0
vn 0.942848 -0.333222 0
vn 0.911349 -0.411635 0
vn 0.911251 -0.411852 0
vn 0.873057 -0.487618 0
vn 0.873141 -0.487467 0
vn 0.828527 -0.559949 0
vn 0.828718 -0.559667 0
vn 0.778244 -0.627962 0
vn 0.778108 -0.62813 0
vn 0.722025 -0.691867 0
vn 0.722146 -0.691741 0
vn 0.660714 -0.750638 0
vn 0.660906 -0.750468 0
vn 0.594681 -0.803962 0
vn 0.59486 -0.803829 0
vn 0.524593 -0.851353 0
vn 0.524242 -0.851569 0
vn 0.450596 -0.892728 0
vn 0.450048 -0.893004 0
vn 0.37327 -0.927723 0
vn 0.372685 -0.927958 0
vn 0.293301 -0.95602 0
vn 0.292562 -0.956246 0
vn 0.211169 -0.97745 0
vn 0.210428 -0.977609 0
vn 0.127342 -0.991859 0
vn 0.126874 -0.991919 0
vn 0.0425513 -0.999094 0
vn 0.0423169 -0.999104 0
vn -0.0425513 -0.999094 -0
vn -0.042317 -0.999104 -0
vn -0.126874 -0.991919 -0
vn -0.127342 -0.991859 -0
vn -0.210428 -0.977609 -0
vn -0.211169 -0.97745 -0
vn -0.292562 -0.956246 -0
vn -0.293301 -0.95602 -0
vn -0.372685 -0.927958 -0
vn -0.37327 -0.927723 -0
vn -0.450048 -0.893004 -0
vn -0.450596 -0.892728 -0
vn -0.524242 -0.851569 -0
vn -0.524593 -0.851353 -0
vn -0.594681 -0.803962 -0
vn -0.59486 -0.803829 -0
vn -0.660906 -0.750468 -0
vn -0.660714 -0.750638 -0
vn -0.722146 -0.691741 -0
vn -0.722025 -0.691867 -0
vn -0.778244 -0.627962 -0
vn -0.778108 -0.62813 -0
vn -0.828718 -0.559667 -0
vn -0.828527 -0.559949 -0
vn -0.873141 -0.487467 -0
vn -0.873057 -0.487618 -0
vn -0.911349 -0.411635 -0
vn -0.911251 -0.411852 -0
vn -0.942971 -0.332876 -0
vn -0.942848 -0.333222 -0
vn -0.967768 -0.251843 -0
vn -0.967739 -0.251956 -0
vn -0.9856 -0.169093 -0
vn -0.985661 -0.168736 -0
vn -0.996417 -0.0845716 -0
vn -0.996418 -0.0845638 -0
vn -1 0 0
vn -0.996417 0.0845717 0
vn -0.996418 0.0845638 0
vn -0.9856 0.169093 0
vn -0.985661 0.168736 0
vn -0.967768 0.251843 0
vn -0.967739 0.251956 0
vn -0.942971 0.332876 0
vn -0.942848 0.333222 0
vn -0.911349 0.411635 0
vn -0.911251 0.411852 0
vn -0.873057 0.487618 0
vn -0.873141 0.487467 0
vn -0.828718 0.559667 0
vn -0.828527 0.559949 0
vn -0.778244 0.627962 0
vn -0.778108 0.62813 0
vn -0.722025 0.691867 0
vn -0.722146 0.691741 0
vn -0.660714 0.750638 0
vn -0.660906 0.750468 0
vn -0.594681 0.803962 0
vn -0.59486 0.803829 0
vn -0.524593 0.851353 0
vn -0.524242 0.851569 0
vn -0.450596 0.892728 0
vn -0.450048 0.893004 0
vn -0.37327 0.927723 0
vn -0.372685 0.927958 0
vn -0.293301 0.95602 0
vn -0.292562 0.956246 0
vn -0.211169 0.97745 0
vn -0.210428 0.977609 0
vn 0 0 1
vn -0 -0 -1

# Mesh '$ColladaAutoName$_0_ID2' with 292 faces
g $ColladaAutoName$_0_ID2
usemtl ID9
f  1//1 2//2 3//3
f  2//2 1//1 4//4
f  1//1 5//5 6//6
f  6//6 4//4 1//1
f  7//7 8//8 2//2
f  3//3 2//2 8//8
f  7//7 9//9 10//10
f  10//10 8//8 7//7
f  11//11 9//9 12//12
f  9//9 11//11 10//10
f  11//11 12//12 13//13
f  14//14 13//13 12//12
f  15//15 13//13 14//14
f  14//14 16//16 15//15
f  16//16 17//17 15//15
f  17//17 16//16 18//18
f  17//17 18//18 19//19
f  20//20 19//19 18//18
f  21//21 22//22 19//19
f  19//19 20//20 21//21
f  23//23 22//22 21//21
f  22//22 23//23 24//24
f  23//23 25//25 24//24
f  26//26 24//24 25//25
f  25//25 27//27 28//28
f  28//28 26//26 25//25
f  29//29 27//27 30//30
f  27//27 29//29 28//28
f  31//31 29//29 32//32
f  30//30 32//32 29//29
f  33//33 31//31 32//32
f  32//32 34//34 33//33
f  34//34 35//35 33//33
f  35//35 34//34 36//36
f  35//35 36//36 37//37
f  38//38 37//37 36//36
f  39//39 40//40 37//37
f  37//37 38//38 39//39
f  41//41 40//40 39//39
f  41//41 42//41 40//40
f  43//42 42//41 41//41
f  42//41 43//42 44//43
f  45//44 44//43 43//42
f  46//45 44//43 45//44
f  45//44 47//46 46//45
f  48//47 47//46 45//44
f  49//48 47//46 48//47
f  50//49 49//48 48//47
f  51//50 49//48 50//49
f  51//50 50//49 52//51
f  52//51 53//52 51//50
f  54//53 51//50 53//52
f  53//52 55//54 56//55
f  54//53 53//52 56//55
f  56//55 55//54 57//56
f  55//54 58//57 57//56
f  59//58 57//56 58//57
f  60//59 57//56 59//58
f  60//59 59//58 61//60
f  62//61 60//59 61//60
f  62//61 61//60 63//62
f  64//63 62//61 63//62
f  63//62 65//64 64//63
f  65//64 63//62 66//65
f  65//64 66//65 67//66
f  66//65 68//67 67//66
f  67//66 68//67 69//68
f  68//67 70//69 69//68
f  69//68 70//69 71//70
f  70//69 72//71 71//70
f  72//71 73//72 71//70
f  74//73 73//72 72//71
f  75//74 73//72 74//73
f  76//75 75//74 74//73
f  77//76 75//74 76//75
f  78//77 77//76 76//75
f  77//76 78//77 79//78
f  77//76 79//78 80//79
f  80//79 79//78 81//80
f  81//80 79//78 82//81
f  81//80 82//81 83//82
f  83//82 82//81 84//83
f  83//82 84//83 85//84
f  84//83 86//85 85//84
f  85//84 86//85 87//86
f  88//87 87//86 86//85
f  87//86 88//87 89//88
f  88//87 90//89 89//88
f  90//89 91//90 89//88
f  92//91 91//90 90//89
f  91//90 92//91 93//92
f  92//91 94//93 93//92
f  95//94 93//92 94//93
f  96//95 93//92 95//94
f  95//94 97//96 96//95
f  97//96 98//97 96//95
f  99//98 98//97 97//96
f  98//97 99//98 100//99
f  101//100 102//101 99//98
f  100//99 99//98 102//101
f  101//100 103//102 104//103
f  104//103 102//101 101//100
f  105//104 104//103 103//102
f  104//103 105//104 106//105
f  107//106 108//107 105//104
f  106//105 105//104 108//107
f  107//106 109//108 110//109
f  110//109 108//107 107//106
f  111//110 109//108 112//111
f  109//108 111//110 110//109
f  113//112 111//110 114//113
f  112//111 114//113 111//110
f  115//114 116//114 113//112
f  113//112 114//113 115//114
f  117//115 116//114 115//114
f  118//116 116//114 117//115
f  119//117 118//116 117//115
f  118//116 119//117 120//118
f  121//119 120//118 119//117
f  119//117 122//120 121//119
f  121//119 122//120 123//121
f  124//122 123//121 122//120
f  124//122 125//123 123//121
f  125//123 124//122 126//124
f  125//123 126//124 127//125
f  127//125 128//126 125//123
f  128//126 127//125 129//127
f  130//128 129//127 127//125
f  130//128 131//129 129//127
f  131//129 130//128 132//130
f  131//129 132//130 133//131
f  133//131 134//132 131//129
f  133//131 135//133 134//132
f  136//134 134//132 135//133
f  137//135 136//134 135//133
f  136//134 137//135 138//136
f  139//137 138//136 137//135
f  137//135 140//138 139//137
f  139//137 140//138 141//139
f  142//140 141//139 140//138
f  142//140 143//141 141//139
f  143//141 142//140 144//142
f  145//143 143//141 144//142
f  144//142 146//144 145//143
f  145//143 146//144 147//145
f  148//146 147//145 146//144
f  148//146 5//5 147//145
f  5//5 148//146 6//6
f  101//147 97//147 82//147
f  101//147 105//147 103//147
f  101//147 99//147 97//147
f  82//147 105//147 101//147
f  84//147 82//147 86//147
f  97//147 86//147 82//147
f  105//147 82//147 79//147
f  78//147 107//147 105//147
f  105//147 79//147 78//147
f  112//147 109//147 78//147
f  78//147 109//147 107//147
f  76//147 74//147 78//147
f  114//147 112//147 78//147
f  114//147 78//147 74//147
f  74//147 72//147 114//147
f  70//147 117//147 114//147
f  70//147 114//147 72//147
f  115//147 114//147 117//147
f  68//147 117//147 70//147
f  66//147 117//147 68//147
f  66//147 119//147 117//147
f  66//147 122//147 119//147
f  63//147 122//147 66//147
f  63//147 124//147 122//147
f  124//147 63//147 61//147
f  126//147 124//147 61//147
f  61//147 59//147 126//147
f  59//147 127//147 126//147
f  127//147 59//147 58//147
f  58//147 130//147 127//147
f  58//147 55//147 132//147
f  132//147 130//147 58//147
f  53//147 132//147 55//147
f  53//147 133//147 132//147
f  53//147 52//147 133//147
f  135//147 133//147 52//147
f  50//147 135//147 52//147
f  137//147 135//147 50//147
f  50//147 48//147 137//147
f  48//147 140//147 137//147
f  48//147 45//147 140//147
f  45//147 43//147 140//147
f  140//147 43//147 142//147
f  142//147 43//147 144//147
f  43//147 41//147 39//147
f  144//147 43//147 39//147
f  146//147 144//147 39//147
f  146//147 39//147 148//147
f  39//147 4//147 148//147
f  4//147 39//147 38//147
f  6//147 148//147 4//147
f  34//147 32//147 4//147
f  32//147 2//147 4//147
f  4//147 38//147 36//147
f  36//147 34//147 4//147
f  32//147 30//147 27//147
f  2//147 32//147 7//147
f  7//147 32//147 27//147
f  7//147 27//147 23//147
f  25//147 23//147 27//147
f  12//147 7//147 23//147
f  7//147 12//147 9//147
f  23//147 14//147 12//147
f  14//147 23//147 16//147
f  20//147 23//147 21//147
f  23//147 18//147 16//147
f  20//147 18//147 23//147
f  86//147 97//147 88//147
f  95//147 94//147 97//147
f  90//147 97//147 92//147
f  90//147 88//147 97//147
f  97//147 94//147 92//147
f  143//148 40//148 44//148
f  44//148 141//148 143//148
f  143//148 145//148 40//148
f  40//148 1//148 37//148
f  147//148 40//148 145//148
f  40//148 147//148 1//148
f  42//148 44//148 40//148
f  139//148 141//148 44//148
f  139//148 44//148 46//148
f  46//148 47//148 139//148
f  138//148 139//148 47//148
f  138//148 47//148 49//148
f  49//148 136//148 138//148
f  51//148 136//148 49//148
f  136//148 51//148 134//148
f  134//148 51//148 54//148
f  131//148 134//148 54//148
f  131//148 54//148 56//148
f  131//148 57//148 129//148
f  131//148 56//148 57//148
f  60//148 128//148 57//148
f  128//148 129//148 57//148
f  128//148 60//148 125//148
f  62//148 125//148 60//148
f  62//148 123//148 125//148
f  64//148 123//148 62//148
f  123//148 64//148 121//148
f  121//148 64//148 65//148
f  120//148 121//148 65//148
f  118//148 65//148 67//148
f  120//148 65//148 118//148
f  67//148 69//148 118//148
f  118//148 113//148 116//148
f  113//148 118//148 69//148
f  71//148 113//148 69//148
f  111//148 113//148 77//148
f  73//148 113//148 71//148
f  77//148 113//148 73//148
f  111//148 77//148 110//148
f  108//148 77//148 106//148
f  75//148 77//148 73//148
f  106//148 77//148 80//148
f  77//148 108//148 110//148
f  104//148 106//148 102//148
f  106//148 81//148 102//148
f  106//148 80//148 81//148
f  102//148 81//148 98//148
f  98//148 100//148 102//148
f  81//148 85//148 98//148
f  85//148 81//148 83//148
f  87//148 98//148 85//148
f  98//148 87//148 89//148
f  98//148 93//148 96//148
f  91//148 98//148 89//148
f  91//148 93//148 98//148
f  1//148 31//148 33//148
f  31//148 1//148 3//148
f  37//148 1//148 35//148
f  1//148 33//148 35//148
f  5//148 1//148 147//148
f  3//148 8//148 31//148
f  28//148 29//148 31//148
f  8//148 28//148 31//148
f  28//148 8//148 24//148
f  11//148 24//148 8//148
f  10//148 11//148 8//148
f  28//148 24//148 26//148
f  19//148 22//148 24//148
f  24//148 15//148 17//148
f  19//148 24//148 17//148
f  24//148 11//148 13//148
f  15//148 24//148 13//148

